<svg width="250" height="250" viewBox="0 0 250 250" fill="none" xmlns="http://www.w3.org/2000/svg">
<path d="M17.1421 49.4264C9.33165 41.6159 9.33165 28.9526 17.1421 21.1421C24.9526 13.3317 37.6159 13.3317 45.4264 21.1421L112.602 88.3173C120.412 96.1278 120.412 108.791 112.602 116.602C104.791 124.412 92.1278 124.412 84.3173 116.602L17.1421 49.4264Z" fill="#1EB16B"/>
<path d="M10 154C10 142.954 18.9543 134 30 134C41.0457 134 50 142.954 50 154L50 224C50 235.046 41.0457 244 30 244C18.9543 244 10 235.046 10 224L10 154Z" fill="#D63535"/>
<path d="M104 154C104 142.954 112.954 134 124 134C135.046 134 144 142.954 144 154V224C144 235.046 135.046 244 124 244C112.954 244 104 235.046 104 224V154Z" fill="#D63535"/>
<path d="M160 154C160 142.954 168.954 134 180 134C191.046 134 200 142.954 200 154V224C200 235.046 191.046 244 180 244C168.954 244 160 235.046 160 224V154Z" fill="#E7A628"/>
<path d="M50 104C50 115.046 41.0457 124 30 124C18.9543 124 10 115.046 10 104C10 92.9543 18.9543 84 30 84C41.0457 84 50 92.9543 50 104Z" fill="#1EB16B"/>
<path d="M97 189C97 200.046 88.0457 209 77 209C65.9543 209 57 200.046 57 189C57 177.954 65.9543 169 77 169C88.0457 169 97 177.954 97 189Z" fill="#D63535"/>
<path d="M247 224C247 235.046 238.046 244 227 244C215.954 244 207 235.046 207 224C207 212.954 215.954 204 227 204C238.046 204 247 212.954 247 224Z" fill="#E7A628"/>
<path d="M120 34C120 45.0457 111.046 54 100 54C88.9543 54 80 45.0457 80 34C80 22.9543 88.9543 14 100 14C111.046 14 120 22.9543 120 34Z" fill="#1EB16B"/>
<path d="M175.317 22.2884C180.994 11.8292 196.007 11.8292 201.684 22.2884L244.458 101.094C249.883 111.089 242.647 123.25 231.275 123.25H145.726C134.354 123.25 127.118 111.089 132.543 101.094L175.317 22.2884Z" fill="#275ADB"/>
</svg>
